<?xml version="1.0" encoding="UTF-8" standalone="no"?>
<!-- Created with Inkscape (http://www.inkscape.org/) -->

<svg
   width="512"
   height="512"
   viewBox="0 0 512 512"
   version="1.1"
   id="svg1"
   xml:space="preserve"
   xmlns="http://www.w3.org/2000/svg"
   xmlns:svg="http://www.w3.org/2000/svg"><defs
     id="defs1" /><g
     id="layer1"><rect
       style="fill:#38693b;fill-opacity:1"
       id="rect1"
       width="512"
       height="512"
       x="0"
       y="0" /><g
       id="g1"
       transform="matrix(0.03132298,0,0,0.03132298,-64.402033,-78.649068)"><g
         id="lFghi6LZOB6h44pgnIXVoH"
         fill="#ffffff"
         data-darkreader-inline-fill=""
         transform="matrix(1.2222828,0,0,1.2105917,-2258.985,-2188.0196)"><g
           id="g2"><path
             id="pbDt4a3Vv"
             d="m 8455,15181 c -151,-32 -224,-62 -327,-134 -32,-22 -58,-41 -58,-43 0,-1 48,-28 108,-60 192,-102 305,-190 460,-357 135,-146 192,-217 290,-362 176,-263 356,-601 510,-960 123,-287 322,-782 402,-998 36,-99 70,-180 75,-180 15,-3 52,156 71,310 25,198 25,692 0,893 -71,580 -220,1041 -439,1364 -75,112 -275,314 -373,380 -99,65 -251,128 -369,151 -81,17 -262,14 -350,-4 z" /><path
             id="p15iHEydya"
             d="m 11597,15190 c -115,-18 -193,-42 -286,-88 -405,-197 -715,-691 -872,-1387 -89,-398 -106,-1097 -34,-1470 21,-111 44,-187 55,-180 5,3 21,45 35,92 73,239 231,637 416,1048 331,737 516,1048 823,1389 119,132 335,295 504,381 39,20 72,38 72,39 0,6 -108,75 -156,99 -111,56 -209,79 -359,82 -77,2 -166,0 -198,-5 z" /><path
             id="pbZrcAiOg"
             d="m 10741,11853 c -16,-31 -41,-124 -67,-248 -67,-327 -55,-787 31,-1126 86,-337 272,-676 556,-1011 210,-248 420,-420 929,-762 311,-210 455,-323 643,-505 312,-302 541,-730 624,-1161 14,-76 18,-144 18,-340 0,-260 -15,-379 -65,-525 -53,-154 -8,-142 188,49 179,174 318,367 428,590 92,190 133,345 155,599 33,387 -112,837 -390,1211 -284,381 -615,622 -1231,899 -947,425 -1367,792 -1634,1427 -117,277 -144,400 -153,708 -3,116 -10,212 -14,212 -5,0 -12,-8 -18,-17 z" /><path
             id="pBLQnWHbL"
             d="m 9627,11853 c -4,-3 -7,-58 -7,-120 0,-314 -72,-615 -219,-919 -147,-303 -345,-546 -636,-780 -124,-100 -196,-149 -344,-233 -118,-67 -148,-83 -416,-211 -697,-334 -928,-483 -1217,-785 -363,-379 -576,-901 -555,-1359 17,-353 145,-674 403,-1006 132,-170 359,-379 384,-354 5,5 1,44 -11,94 -94,401 -90,760 12,1103 129,435 466,896 884,1208 122,92 345,251 480,343 236,160 399,286 565,438 227,206 413,452 549,725 85,172 122,271 173,471 58,228 78,400 78,672 0,284 -15,421 -67,623 -24,88 -37,110 -56,90 z" /><path
             id="pta8ImGJg"
             d="m 7180,11596 c -213,-39 -352,-91 -525,-199 -198,-123 -361,-286 -517,-517 -107,-159 -173,-290 -228,-458 -48,-147 -60,-209 -38,-196 8,5 74,72 145,149 210,226 365,347 558,440 148,71 294,121 429,146 161,29 443,36 661,15 487,-47 705,-47 890,-2 61,14 138,37 171,51 118,46 314,177 314,209 0,9 -32,11 -124,8 -275,-9 -448,31 -806,189 -187,82 -288,117 -434,151 -116,26 -383,34 -496,14 z" /><path
             id="pCYCzP3TS"
             d="m 12785,11595 c -171,-28 -296,-69 -532,-175 -176,-80 -330,-134 -443,-156 -97,-19 -326,-29 -412,-17 -41,6 -68,6 -68,0 0,-20 117,-120 184,-156 251,-139 588,-180 1051,-130 375,40 685,36 915,-13 220,-46 448,-157 675,-328 58,-44 255,-240 327,-326 103,-123 110,-98 38,129 -64,201 -205,457 -339,617 -182,217 -460,415 -701,500 -171,60 -503,86 -695,55 z" /><path
             id="pDHkd8kbB"
             d="m 10127,10655 c -2,-15 -2,-164 1,-333 4,-247 1,-335 -12,-452 -38,-332 -106,-546 -306,-960 -173,-358 -212,-464 -250,-674 -35,-191 -25,-404 27,-579 14,-48 23,-90 20,-93 -4,-4 -37,21 -75,54 -115,102 -216,267 -269,439 -26,83 -27,100 -27,278 0,180 5,229 40,403 11,53 -12,38 -62,-39 -100,-154 -171,-356 -195,-549 -14,-117 -5,-298 23,-435 20,-104 77,-282 109,-347 39,-77 130,-229 165,-275 95,-127 271,-284 431,-385 57,-35 231,-114 303,-136 145,-45 371,-55 508,-22 164,39 273,100 416,229 79,72 119,100 200,139 55,27 129,70 163,96 69,52 173,171 173,197 0,16 -3,16 -47,1 -37,-12 -92,-16 -243,-16 -192,0 -197,0 -287,31 -260,87 -413,248 -422,444 -6,145 26,227 184,464 118,178 157,250 190,349 72,215 74,416 5,636 -33,108 -138,327 -227,475 -177,296 -276,495 -403,814 -58,145 -111,266 -117,268 -6,2 -13,-8 -16,-22 z m 424,-3595 c 38,-12 99,-34 135,-50 36,-17 72,-30 80,-30 27,0 2,-26 -54,-57 -142,-78 -282,-95 -408,-49 -36,13 -71,29 -77,35 -15,15 92,124 148,151 51,25 90,25 176,0 z" /><path
             id="pUzxpQhGl"
             d="m 8558,10535 c -2,-3 -52,-12 -109,-21 -78,-12 -231,-18 -609,-24 -506,-8 -589,-14 -775,-51 -367,-75 -724,-290 -1000,-604 -125,-142 -265,-391 -338,-600 -62,-178 -81,-316 -81,-580 0,-212 2,-240 27,-356 34,-160 85,-308 149,-431 43,-82 55,-98 75,-98 22,0 23,4 23,61 0,84 36,333 66,450 103,416 402,880 769,1197 246,212 482,347 1045,597 296,131 413,190 565,284 105,64 235,160 235,172 0,10 -33,13 -42,4 z" /><path
             id="pEXeYR2S8"
             d="m 11801,10528 c 0,-19 102,-99 214,-169 124,-78 262,-146 515,-254 397,-169 658,-293 750,-355 14,-10 63,-41 110,-70 248,-155 506,-397 676,-635 134,-187 274,-444 323,-592 51,-154 94,-355 106,-498 3,-38 8,-96 11,-127 15,-145 90,-40 193,270 54,160 80,308 87,487 18,439 -96,805 -365,1169 -91,123 -132,168 -247,270 -80,72 -120,101 -274,202 -90,59 -408,177 -565,209 -203,42 -266,47 -755,55 -444,8 -652,20 -757,45 -15,3 -23,1 -22,-7 z" /></g></g></g></g></svg>
