<?xml version="1.0" encoding="utf-8"?>
<svg width="500mm" height="500mm" viewBox="0 0 512 512" version="1.1" id="svg1" xmlns="http://www.w3.org/2000/svg" xmlns:bx="https://boxy-svg.com">
  <title>Logo</title>
  <defs>
    <view id="view-1" viewBox="607 0 500 600">
      <title>Logo-vertical</title>
    </view>
    <view id="view-2" viewBox="1159.3 8.3 900 375">
      <title>Logo-horizontal</title>
    </view>
  </defs>
  <rect style="fill: rgb(16, 109, 32);" width="512" height="512"/>
  <g transform="matrix(-0.914286, 0, 0, 0.914286, 484.571564, 27.428608)" style="">
    <g id="layer1" transform="matrix(0.84, 0, 0, 0.84, -24.015442, -56.562424)">
      <path style="stroke-width: 7.89364; fill: rgb(255, 255, 255);" d="M 173.83 595.102 C 167.258 588.888 132.071 549.623 112.699 509.466 C 100.5 484.179 100.483 483.751 112.083 494.097 C 131.596 511.501 136.164 513.67 124.267 499.883 C 86.388 455.986 70.439 392.133 78.067 314.922 C 79.893 296.439 81.165 297.023 87.822 319.401 C 98.025 353.694 115.693 389.311 129.317 403.049 C 133.956 407.727 133.401 405.777 124.766 387.066 C 83.632 297.931 94.989 201.427 155.435 126.478 C 168.717 110.008 167.309 107.194 169.697 154.977 C 178.107 323.26 243.72 512.682 273.672 455.15 C 277.056 448.651 285.815 436.33 293.137 427.77 C 323.83 391.884 335.721 354.873 323.714 332.596 C 312.988 312.698 265.92 309.81 265.92 329.049 C 265.92 335.728 260.477 329.535 257.784 319.791 C 253.584 304.594 260.384 295.715 282.033 288.126 C 287.341 286.266 290.256 283.459 292.846 277.715 C 297.202 268.055 308.191 261.752 328.592 257.21 C 347.415 253.02 357.96 247.333 371.17 234.244 C 377.078 228.391 381.912 224.527 381.912 225.656 C 381.912 226.786 381.05 232.636 379.997 238.657 C 377.559 252.591 379.967 266.817 387.727 284.269 C 399.35 310.419 399.591 324.29 389.251 372.147 C 378.35 422.602 382.869 467.73 397.677 456.3 C 441.254 422.663 478.247 289.676 483.481 147.839 C 484.943 108.247 484.313 109.255 497.392 125.556 C 560.007 203.597 569.787 300.336 524.543 394.144 C 515.622 412.64 515.622 412.64 522.752 404.115 C 539.946 383.556 556.174 350.769 565.806 317.136 C 572.994 292.037 574.601 295.222 575.94 337.225 C 578.324 411.964 565.012 458.101 529.67 497.597 C 515.828 513.065 518.6 513.355 535.773 498.233 C 551.547 484.343 551.79 484.523 542.972 503.544 C 522.143 548.475 488.015 591.519 478.82 595.577 C 427.042 618.431 240.431 624.412 173.83 595.102 Z" id="path1"/>
    </g>
    <path style="stroke: rgb(0, 0, 0); transform-box: fill-box; transform-origin: 50% 50%; fill: rgb(16, 109, 32);" transform="matrix(-0.173992, -0.266159, 0.342243, -0.22373, -446.152802, -196.93399)" d="M 688.075 339.014 A 62 62 0 0 1 688.075 421.986 A 90.134 90.134 0 0 1 688.075 339.014 Z" bx:shape="crescent 642 380.5 62 84 0.79 1@cd36d327"/>
  </g>
  <rect style="fill: rgb(16, 109, 32);" x="607.074" y="0" width="500" height="600" rx="0" ry="0"/>
  <g transform="matrix(-0.892857, 0, 0, 0.892857, 1080.288208, 26.785839)" style="">
    <g id="g-1" transform="matrix(0.84, 0, 0, 0.84, -24.015442, -56.562424)">
      <path style="stroke-width: 7.89364; fill: rgb(255, 255, 255);" d="M 173.83 595.102 C 167.258 588.888 132.071 549.623 112.699 509.466 C 100.5 484.179 100.483 483.751 112.083 494.097 C 131.596 511.501 136.164 513.67 124.267 499.883 C 86.388 455.986 70.439 392.133 78.067 314.922 C 79.893 296.439 81.165 297.023 87.822 319.401 C 98.025 353.694 115.693 389.311 129.317 403.049 C 133.956 407.727 133.401 405.777 124.766 387.066 C 83.632 297.931 94.989 201.427 155.435 126.478 C 168.717 110.008 167.309 107.194 169.697 154.977 C 178.107 323.26 243.72 512.682 273.672 455.15 C 277.056 448.651 285.815 436.33 293.137 427.77 C 323.83 391.884 335.721 354.873 323.714 332.596 C 312.988 312.698 265.92 309.81 265.92 329.049 C 265.92 335.728 260.477 329.535 257.784 319.791 C 253.584 304.594 260.384 295.715 282.033 288.126 C 287.341 286.266 290.256 283.459 292.846 277.715 C 297.202 268.055 308.191 261.752 328.592 257.21 C 347.415 253.02 357.96 247.333 371.17 234.244 C 377.078 228.391 381.912 224.527 381.912 225.656 C 381.912 226.786 381.05 232.636 379.997 238.657 C 377.559 252.591 379.967 266.817 387.727 284.269 C 399.35 310.419 399.591 324.29 389.251 372.147 C 378.35 422.602 382.869 467.73 397.677 456.3 C 441.254 422.663 478.247 289.676 483.481 147.839 C 484.943 108.247 484.313 109.255 497.392 125.556 C 560.007 203.597 569.787 300.336 524.543 394.144 C 515.622 412.64 515.622 412.64 522.752 404.115 C 539.946 383.556 556.174 350.769 565.806 317.136 C 572.994 292.037 574.601 295.222 575.94 337.225 C 578.324 411.964 565.012 458.101 529.67 497.597 C 515.828 513.065 518.6 513.355 535.773 498.233 C 551.547 484.343 551.79 484.523 542.972 503.544 C 522.143 548.475 488.015 591.519 478.82 595.577 C 427.042 618.431 240.431 624.412 173.83 595.102 Z" id="path-1"/>
    </g>
    <path style="stroke: rgb(0, 0, 0); transform-box: fill-box; transform-origin: 50% 50%; fill: rgb(16, 109, 32);" transform="matrix(-0.173992, -0.266159, 0.342243, -0.22373, -446.152802, -196.93399)" d="M 688.075 339.014 A 62 62 0 0 1 688.075 421.986 A 90.134 90.134 0 0 1 688.075 339.014 Z" bx:shape="crescent 642 380.5 62 84 0.79 1@cd36d327"/>
  </g>
  <text style="fill: rgb(255, 255, 255); font-family: Montserrat; font-size: 76px; font-weight: 900; white-space: pre;" x="684.635" y="536.464">FOSSIFY</text>
  <rect style="fill: rgb(16, 109, 32);" x="1159.3" y="8.3" width="900" height="375" rx="0" ry="0"/>
  <g transform="matrix(-0.595238, 0, 0, 0.595238, 1495.609741, 48.631401)" style="">
    <g id="g-2" transform="matrix(0.84, 0, 0, 0.84, -24.015442, -56.562424)">
      <path style="stroke-width: 7.89364; fill: rgb(255, 255, 255);" d="M 173.83 595.102 C 167.258 588.888 132.071 549.623 112.699 509.466 C 100.5 484.179 100.483 483.751 112.083 494.097 C 131.596 511.501 136.164 513.67 124.267 499.883 C 86.388 455.986 70.439 392.133 78.067 314.922 C 79.893 296.439 81.165 297.023 87.822 319.401 C 98.025 353.694 115.693 389.311 129.317 403.049 C 133.956 407.727 133.401 405.777 124.766 387.066 C 83.632 297.931 94.989 201.427 155.435 126.478 C 168.717 110.008 167.309 107.194 169.697 154.977 C 178.107 323.26 243.72 512.682 273.672 455.15 C 277.056 448.651 285.815 436.33 293.137 427.77 C 323.83 391.884 335.721 354.873 323.714 332.596 C 312.988 312.698 265.92 309.81 265.92 329.049 C 265.92 335.728 260.477 329.535 257.784 319.791 C 253.584 304.594 260.384 295.715 282.033 288.126 C 287.341 286.266 290.256 283.459 292.846 277.715 C 297.202 268.055 308.191 261.752 328.592 257.21 C 347.415 253.02 357.96 247.333 371.17 234.244 C 377.078 228.391 381.912 224.527 381.912 225.656 C 381.912 226.786 381.05 232.636 379.997 238.657 C 377.559 252.591 379.967 266.817 387.727 284.269 C 399.35 310.419 399.591 324.29 389.251 372.147 C 378.35 422.602 382.869 467.73 397.677 456.3 C 441.254 422.663 478.247 289.676 483.481 147.839 C 484.943 108.247 484.313 109.255 497.392 125.556 C 560.007 203.597 569.787 300.336 524.543 394.144 C 515.622 412.64 515.622 412.64 522.752 404.115 C 539.946 383.556 556.174 350.769 565.806 317.136 C 572.994 292.037 574.601 295.222 575.94 337.225 C 578.324 411.964 565.012 458.101 529.67 497.597 C 515.828 513.065 518.6 513.355 535.773 498.233 C 551.547 484.343 551.79 484.523 542.972 503.544 C 522.143 548.475 488.015 591.519 478.82 595.577 C 427.042 618.431 240.431 624.412 173.83 595.102 Z" id="path-2"/>
    </g>
    <path style="stroke: rgb(0, 0, 0); transform-box: fill-box; transform-origin: 50% 50%; fill: rgb(16, 109, 32);" transform="matrix(-0.173992, -0.266159, 0.342243, -0.22373, -446.152802, -196.93399)" d="M 688.075 339.014 A 62 62 0 0 1 688.075 421.986 A 90.134 90.134 0 0 1 688.075 339.014 Z" bx:shape="crescent 642 380.5 62 84 0.79 1@cd36d327"/>
  </g>
  <text style="fill: rgb(255, 255, 255); font-family: Montserrat; font-size: 106px; font-weight: 900; white-space: pre;" x="1516.357" y="238.63">FOSSIFY</text>
</svg>
